HIERARCHY
ROOT Hips
{
  OFFSET 0.000000 0.000000 0.000000
  CHANNELS 6 Xposition Yposition Zposition Zrotation Yrotation Xrotation
  JOINT Spine
  {
    OFFSET 0.062172 1.937575 -0.492720
    CHANNELS 3 Zrotation Yrotation Xrotation
    JOINT Spine1
    {
      OFFSET -0.031137 2.036208 -0.058297
      CHANNELS 3 Zrotation Yrotation Xrotation
      JOINT Spine2
      {
        OFFSET -0.069919 2.151870 0.173696
        CHANNELS 3 Zrotation Yrotation Xrotation
        JOINT Neck
        {
          OFFSET 0.044207 1.410100 0.265621
          CHANNELS 3 Zrotation Yrotation Xrotation
          JOINT Head
          {
            OFFSET -0.049801 1.458443 -0.006888
            CHANNELS 3 Zrotation Yrotation Xrotation
            End Site
            {
              OFFSET 0 0 0
            }
          }
        }
        JOINT LeftShoulder
        {
          OFFSET 2.183824 1.477530 -0.356942
          CHANNELS 3 Zrotation Yrotation Xrotation
          JOINT LeftArm
          {
            OFFSET 5.054600 -0.000000 0.000000
            CHANNELS 3 Zrotation Yrotation Xrotation
            JOINT LeftForeArm
            {
              OFFSET 3.390130 -0.000000 0.000000
              CHANNELS 3 Zrotation Yrotation Xrotation
              JOINT LeftHand
              {
                OFFSET 0.572425 -0.000000 -0.000000
                CHANNELS 3 Zrotation Yrotation Xrotation
                JOINT LeftHandIndex1
                {
                  OFFSET 0.461504 -0.000000 -0.000000
                  CHANNELS 3 Zrotation Yrotation Xrotation
                  End Site
                  {
                    OFFSET 0 0 0
                  }
                }
              }
            }
          }
        }
        JOINT RightShoulder
        {
          OFFSET -2.060333 1.728387 -0.474374
          CHANNELS 3 Zrotation Yrotation Xrotation
          JOINT RightArm
          {
            OFFSET -5.070100 -0.000000 0.000000
            CHANNELS 3 Zrotation Yrotation Xrotation
            JOINT RightForeArm
            {
              OFFSET -3.149570 -0.000000 -0.000000
              CHANNELS 3 Zrotation Yrotation Xrotation
              JOINT RightHand
              {
                OFFSET -0.718191 -0.000000 -0.000000
                CHANNELS 3 Zrotation Yrotation Xrotation
                JOINT RightHandIndex1
                {
                  OFFSET -0.579024 -0.000000 -0.000000
                  CHANNELS 3 Zrotation Yrotation Xrotation
                  End Site
                  {
                    OFFSET 0 0 0
                  }
                }
              }
            }
          }
        }
      }
    }
  }
  JOINT LeftUpLeg
  {
    OFFSET 2.115383 -5.811973 0.000000
    CHANNELS 3 Zrotation Yrotation Xrotation
    JOINT LeftLeg
    {
      OFFSET 2.365414 -6.498926 0.000000
      CHANNELS 3 Zrotation Yrotation Xrotation
      JOINT LeftFoot
      {
        OFFSET 0.177591 -0.487927 1.738650
        CHANNELS 3 Zrotation Yrotation Xrotation
        JOINT LeftToeBase
        {
          OFFSET 0.000000 -0.000000 0.912052
          CHANNELS 3 Zrotation Yrotation Xrotation
          End Site
          {
            OFFSET 0 0 0
          }
        }
      }
    }
  }
  JOINT RightUpLeg
  {
    OFFSET -2.104805 -5.782908 0.000000
    CHANNELS 3 Zrotation Yrotation Xrotation
    JOINT RightLeg
    {
      OFFSET -2.348802 -6.453285 0.000000
      CHANNELS 3 Zrotation Yrotation Xrotation
      JOINT RightFoot
      {
        OFFSET -0.228416 -0.627566 1.804693
        CHANNELS 3 Zrotation Yrotation Xrotation
        JOINT RightToeBase
        {
          OFFSET -0.000000 -0.000000 0.958865
          CHANNELS 3 Zrotation Yrotation Xrotation
          End Site
          {
            OFFSET 0 0 0
          }
        }
      }
    }
  }
}
MOTION
Frames: 16
Frame Time: 0.00833333
19.200600 14.852300 0.833027 -170.261000 -79.769100 167.093000 -21.417700 -17.176700 -9.274770 0.000000 0.000000 42.004000 26.665500 0.000000 -39.270700 0.000000 0.000000 6.421980 24.998400 19.231700 -10.818000 0.000000 0.000000 40.184800 -27.264900 0.000000 -32.199100 0.000000 0.000000 -2.014490 -1.678640 0.452923 1.841850 -0.695948 0.551714 3.397720 0.226676 0.217321 2.444020 -1.524450 -9.044000 -1.566250 0.991202 -6.104500 2.578040 -0.000000 -0.000000 0.000000 77.547300 14.755900 -30.506200 0.000000 0.000000 25.684300 10.164200 0.000000 -15.559300 0.000000 0.000000 7.125020 -0.000000 -0.000000 0.000000 -90.865300 10.396300 -34.115000 0.000000 0.000000 31.850700 3.712380 0.000000 -14.414300 0.000000 0.000000 7.125020
19.198900 14.850700 0.836510 -171.049000 -79.831700 167.880000 -21.570100 -17.007600 -9.229380 0.000000 0.000000 41.941700 26.468200 0.000000 -39.219600 0.000000 0.000000 6.535920 24.822700 19.247500 -10.871300 0.000000 0.000000 40.282900 -27.010600 0.000000 -33.067500 0.000000 0.000000 -5.031960 -1.761200 0.471551 1.862460 -0.792341 0.576919 3.368620 0.173812 0.229531 2.402360 -1.589480 -9.106620 -1.651950 0.978058 -6.153850 2.740640 -0.000000 0.000000 0.000000 77.542500 14.589100 -30.671000 0.000000 0.000000 25.885500 10.173000 0.000000 -15.720400 0.000000 0.000000 7.125020 -0.000000 0.000000 0.000000 -90.890600 10.274700 -34.219800 0.000000 0.000000 31.833000 3.753410 0.000000 -14.558300 0.000000 0.000000 7.125020
19.194500 14.848900 0.841972 -170.919000 -79.850300 167.751000 -21.579400 -16.972600 -9.207880 0.000000 0.000000 41.948200 26.412200 0.000000 -39.243100 0.000000 0.000000 6.707810 24.814600 19.187500 -10.861900 0.000000 0.000000 40.294100 -26.742300 0.000000 -33.860700 0.000000 0.000000 -8.213650 -1.681520 0.470852 1.829850 -0.821598 0.577560 3.374920 0.099469 0.231964 2.428130 -1.606560 -9.136600 -1.706690 0.950143 -6.179640 2.859540 0.000000 -0.000000 0.000000 77.531000 14.532200 -30.907100 0.000000 0.000000 26.257200 10.353400 0.000000 -15.804900 0.000000 0.000000 7.125020 0.000000 -0.000000 0.000000 -90.906600 10.221000 -34.251000 0.000000 0.000000 31.794100 3.516550 0.000000 -14.340500 0.000000 0.000000 7.125020
19.196500 14.850300 0.845171 -170.753000 -80.078800 167.632000 -21.545100 -16.966200 -9.320780 0.000000 0.000000 41.955200 26.325000 0.000000 -38.992300 0.000000 0.000000 6.509500 24.771400 19.039200 -10.893100 0.000000 0.000000 40.299100 -26.511700 0.000000 -34.799100 0.000000 0.000000 -11.292900 -1.717750 0.402582 1.859480 -0.816147 0.485815 3.354490 0.124862 0.185752 2.391390 -1.564610 -9.110930 -1.882920 0.875029 -6.163010 2.981500 0.000000 0.000000 0.000000 77.501300 14.652000 -31.302500 0.000000 0.000000 26.755100 10.625900 0.000000 -15.951100 0.000000 0.000000 7.125020 0.000000 0.000000 0.000000 -90.908800 10.281400 -34.298100 0.000000 0.000000 31.796100 2.791980 0.000000 -13.855200 0.000000 0.000000 7.125020
19.193300 14.849000 0.851371 -170.874000 -80.092800 167.695000 -21.642500 -17.030000 -9.239680 0.000000 0.000000 41.967600 26.202600 0.000000 -39.083400 0.000000 0.000000 7.044200 24.717500 18.920200 -10.823600 0.000000 0.000000 40.292500 -26.168200 0.000000 -35.596500 0.000000 0.000000 -14.612200 -1.690090 0.411884 1.876170 -0.825651 0.497516 3.385620 0.099596 0.191660 2.414240 -1.531380 -9.054770 -2.081880 0.813431 -6.123700 3.078950 -0.000000 -0.000000 0.000000 77.541000 14.603500 -31.430300 0.000000 0.000000 26.836100 10.875400 0.000000 -15.966400 0.000000 0.000000 7.125020 -0.000000 -0.000000 0.000000 -90.925800 10.456800 -34.381900 0.000000 0.000000 31.850100 2.821440 0.000000 -13.931800 0.000000 0.000000 7.125020
19.194700 14.851400 0.854251 -169.994000 -80.073200 166.895000 -21.439000 -16.982200 -9.348400 0.000000 0.000000 41.980700 25.871200 0.000000 -39.198100 0.000000 0.000000 8.005860 24.858300 18.972800 -10.919100 0.000000 0.000000 40.278500 -25.815400 0.000000 -37.157100 0.000000 0.000000 -21.115100 -1.526800 0.430101 1.805860 -0.797138 0.524284 3.389930 0.038028 0.208752 2.458770 -1.481820 -9.066950 -2.246350 0.753523 -6.131400 3.175490 -0.000000 0.000000 0.000000 77.742700 14.120900 -31.167200 0.000000 0.000000 26.679800 11.494500 0.000000 -15.718600 0.000000 0.000000 7.125020 -0.000000 0.000000 0.000000 -90.924100 10.470200 -34.410600 0.000000 0.000000 31.877300 3.666110 0.000000 -14.405800 0.000000 0.000000 7.125020
19.194400 14.852500 0.857210 -170.189000 -80.075900 167.148000 -21.462200 -17.001100 -9.431430 0.000000 0.000000 41.988000 25.692700 0.000000 -39.312200 0.000000 0.000000 8.758540 24.789300 19.019200 -11.017500 0.000000 0.000000 40.272300 -26.043700 0.000000 -37.020800 0.000000 0.000000 -21.475200 -1.550530 0.462716 1.738340 -0.820716 0.569839 3.396110 0.027781 0.230960 2.502610 -1.483440 -9.107530 -2.294810 0.734585 -6.160520 3.237200 -0.000000 -0.000000 0.000000 77.928600 13.711500 -30.990900 0.000000 0.000000 26.685800 11.489900 0.000000 -15.760200 0.000000 0.000000 7.125020 -0.000000 -0.000000 0.000000 -90.897300 10.342800 -34.419400 0.000000 0.000000 31.874300 3.840180 0.000000 -14.564700 0.000000 0.000000 7.125020
19.194400 14.851600 0.860380 -170.639000 -80.126200 167.594000 -21.572400 -17.086600 -9.463600 0.000000 0.000000 41.998700 25.759100 0.000000 -39.270000 0.000000 0.000000 8.656370 24.685100 19.057800 -11.021400 0.000000 0.000000 40.260400 -26.052300 0.000000 -37.105000 0.000000 0.000000 -21.332700 -1.639260 0.467003 1.790990 -0.843565 0.573931 3.396030 0.053611 0.231001 2.472390 -1.603020 -9.108700 -2.264860 0.802804 -6.164030 3.247730 0.000000 -0.000000 0.000000 77.994100 13.640800 -30.970100 0.000000 0.000000 26.742800 11.569700 0.000000 -15.810300 0.000000 0.000000 7.125020 0.000000 -0.000000 0.000000 -90.894500 10.341200 -34.480500 0.000000 0.000000 31.922200 3.535210 0.000000 -14.539800 0.000000 0.000000 7.125020
19.195900 14.851400 0.862743 -170.050000 -80.170900 167.009000 -21.481600 -17.156200 -9.492910 0.000000 0.000000 42.001400 25.807900 0.000000 -39.190700 0.000000 0.000000 8.408530 24.803800 19.195000 -11.001600 0.000000 0.000000 40.260500 -26.014800 0.000000 -37.376400 0.000000 0.000000 -20.814600 -1.564620 0.463834 1.911840 -0.824254 0.566433 3.380350 0.030708 0.229428 2.388830 -1.698260 -9.099740 -2.299080 0.876264 -6.160030 3.272060 0.000000 -0.000000 0.000000 78.039100 13.594600 -30.894200 0.000000 0.000000 26.739800 11.669400 0.000000 -15.859600 0.000000 0.000000 7.125020 0.000000 -0.000000 0.000000 -90.888100 10.272000 -34.559100 0.000000 0.000000 31.971100 3.525100 0.000000 -14.459700 0.000000 0.000000 7.125020
19.197000 14.852200 0.864402 -169.753000 -80.201500 166.736000 -21.431700 -17.196000 -9.510380 0.000000 0.000000 41.986700 25.625600 0.000000 -39.228500 0.000000 0.000000 8.897300 24.869100 19.338200 -11.022900 0.000000 0.000000 40.273700 -26.102000 0.000000 -37.500000 0.000000 0.000000 -20.606700 -1.532630 0.494039 2.045530 -0.838479 0.604026 3.310570 -0.002966 0.250797 2.241820 -1.624290 -9.095610 -2.465510 0.852365 -6.158610 3.365820 0.000000 -0.000000 0.000000 78.044600 13.493700 -30.906200 0.000000 0.000000 26.841200 11.818400 0.000000 -15.914200 0.000000 0.000000 7.125020 0.000000 -0.000000 0.000000 -90.877600 10.028400 -34.714100 0.000000 0.000000 31.993600 3.681690 0.000000 -14.358300 0.000000 0.000000 7.125020
19.196600 14.853300 0.866733 -170.126000 -80.241100 167.139000 -21.510400 -17.226000 -9.526850 0.000000 0.000000 41.959500 25.494000 0.000000 -39.284200 0.000000 0.000000 9.267720 24.781200 19.345200 -11.070200 0.000000 0.000000 40.288600 -26.260100 0.000000 -37.435000 0.000000 0.000000 -20.865000 -1.591940 0.521724 2.104990 -0.886157 0.639917 3.243470 -0.019410 0.269284 2.138900 -1.567100 -9.109250 -2.515520 0.827988 -6.169940 3.416250 0.000000 0.000000 0.000000 78.060200 13.362600 -31.036100 0.000000 0.000000 27.048900 11.979600 0.000000 -15.990300 0.000000 0.000000 7.125020 0.000000 0.000000 0.000000 -90.896900 9.866280 -34.869000 0.000000 0.000000 32.017100 3.703100 0.000000 -14.341300 0.000000 0.000000 7.125020
19.195500 14.856100 0.869373 -170.585000 -80.296000 167.657000 -21.601200 -17.286500 -9.600060 0.000000 0.000000 41.920300 25.642700 0.000000 -39.218100 0.000000 0.000000 8.855790 24.644600 19.230900 -11.134700 0.000000 0.000000 40.310000 -26.261100 0.000000 -37.394000 0.000000 0.000000 -21.085300 -1.666110 0.516180 2.054020 -0.926856 0.633900 3.233660 -0.019231 0.265073 2.157220 -1.610810 -9.138810 -2.435120 0.860131 -6.190760 3.384800 0.000000 0.000000 0.000000 78.108500 13.274100 -30.999300 0.000000 0.000000 27.051300 11.979800 0.000000 -16.036500 0.000000 0.000000 7.125020 0.000000 0.000000 0.000000 -90.932500 9.842480 -34.850300 0.000000 0.000000 31.960400 3.636580 0.000000 -14.344600 0.000000 0.000000 7.125020
19.195000 14.859300 0.871520 -170.595000 -80.326600 167.724000 -21.604300 -17.362200 -9.672340 0.000000 0.000000 41.902200 25.739100 0.000000 -39.180100 0.000000 0.000000 8.630650 24.608100 19.152200 -11.159200 0.000000 0.000000 40.309900 -26.161100 0.000000 -37.380500 0.000000 0.000000 -21.155500 -1.703840 0.504941 2.041180 -0.919383 0.619242 3.212640 0.009618 0.257280 2.142510 -1.619800 -9.153660 -2.522220 0.847853 -6.200050 3.428380 -0.000000 -0.000000 0.000000 78.165000 13.226000 -30.913300 0.000000 0.000000 26.982200 11.922400 0.000000 -16.082400 0.000000 0.000000 7.125020 -0.000000 -0.000000 0.000000 -90.967400 9.881970 -34.811800 0.000000 0.000000 31.855100 3.318160 0.000000 -14.053500 0.000000 0.000000 7.125020
19.194600 14.859500 0.873218 -170.293000 -80.350600 167.439000 -21.561200 -17.394900 -9.679940 0.000000 0.000000 41.917200 25.662600 0.000000 -39.275400 0.000000 0.000000 8.831470 24.656600 19.175300 -11.145800 0.000000 0.000000 40.278000 -26.172400 0.000000 -37.382800 0.000000 0.000000 -21.126900 -1.690480 0.514652 2.065960 -0.895582 0.631580 3.195930 0.026280 0.263979 2.111080 -1.622980 -9.134010 -2.756390 0.823611 -6.186220 3.547420 0.000000 0.000000 0.000000 78.254000 13.123100 -30.874800 0.000000 0.000000 27.028600 11.962700 0.000000 -16.147000 0.000000 0.000000 7.125020 0.000000 0.000000 0.000000 -91.010000 9.891950 -34.835700 0.000000 0.000000 31.783300 3.094960 0.000000 -13.890900 0.000000 0.000000 7.125020
19.195000 14.858200 0.874068 -169.568000 -80.357600 166.719000 -21.430300 -17.396400 -9.698630 0.000000 0.000000 41.966800 25.611700 0.000000 -39.321800 0.000000 0.000000 9.010140 24.798400 19.290300 -11.134500 0.000000 0.000000 40.217600 -26.309700 0.000000 -37.399700 0.000000 0.000000 -21.025100 -1.584830 0.531528 2.058620 -0.873575 0.654640 3.228450 -0.010157 0.277045 2.149190 -1.582910 -9.123480 -2.955320 0.793711 -6.175700 3.613340 0.000000 -0.000000 0.000000 78.329300 13.041500 -30.770800 0.000000 0.000000 27.126600 12.081500 0.000000 -16.172000 0.000000 0.000000 7.125020 0.000000 -0.000000 0.000000 -91.056500 9.797400 -34.796500 0.000000 0.000000 31.713300 3.465870 0.000000 -14.462800 0.000000 0.000000 7.125020
19.195500 14.858600 0.874996 -169.013000 -80.379300 166.175000 -21.335600 -17.423600 -9.738220 0.000000 0.000000 42.017400 25.528200 0.000000 -39.305500 0.000000 0.000000 9.283000 24.898600 19.349000 -11.126500 0.000000 0.000000 40.165500 -26.425800 0.000000 -37.409700 0.000000 0.000000 -20.986100 -1.539890 0.514513 2.008840 -0.834975 0.632808 3.284800 0.004907 0.265586 2.235430 -1.543360 -9.169850 -2.903910 0.763169 -6.201660 3.538500 0.000000 -0.000000 0.000000 78.403700 13.056000 -30.646200 0.000000 0.000000 27.236000 12.241200 0.000000 -16.190300 0.000000 0.000000 7.125020 0.000000 -0.000000 0.000000 -91.076300 9.820570 -34.688400 0.000000 0.000000 31.704000 3.531760 0.000000 -14.930400 0.000000 0.000000 7.125020
